<!-- icon666.com - MILLIONS vector ICONS FREE --><svg id="Capa_1" enable-background="new 0 0 512 512" viewBox="0 0 512 512" xmlns="http://www.w3.org/2000/svg"><g><path d="m15 256c0 133.101 107.899 241 241 241l10-15v-452l-10-15c-133.101 0-241 107.899-241 241z" fill="#e4eef7"></path><path d="m256 15v482c133.101 0 241-107.899 241-241s-107.899-241-241-241z" fill="#d5e0f1"></path><path d="m196.05 318v26.149l59.95-17.113 10-14.7-10-54.336c-33.114.027-59.95 26.879-59.95 60z" fill="#ffeb70"></path><path d="m256.05 258c-.017 0-.033 0-.05 0v69.036l.05-.014 60 17.127v-26.149c0-33.137-26.863-60-60-60z" fill="#ffc42b"></path><path d="m195.95 138v58l60.05 9.992 10-33.992-10-34z" fill="#ffeb70"></path><path d="m315.95 196v-58h-59.95v67.992l.05.008z" fill="#ffc42b"></path><path d="m251.578 316.385-55.528 27.764v29.851h59.95l7.633-28-7.633-30.668c-1.516.008-3.03.357-4.422 1.053z" fill="#ffc42b"></path><path d="m316.05 344.149-55.528-27.764c-1.423-.712-2.973-1.061-4.522-1.053v58.668h60.05z" fill="#ffa736"></path><path d="m195.95 196v2c0 33.137 26.913 60 60.05 60 .017 0 10-31 10-31l-10-31z" fill="#ffc42b"></path><path d="m315.95 198v-2h-59.95v62c33.114-.027 59.95-26.879 59.95-60z" fill="#ffa736"></path><path d="m186.05 121c-8.284 0-15 6.716-15 15s6.716 15 15 15h69.95l10-13-10-17z" fill="#555578"></path><path d="m340.95 136c0-8.284-6.716-15-15-15h-69.95v30h69.95c8.284 0 15-6.716 15-15z" fill="#3b385c"></path><path d="m186.05 361c-8.284 0-15 6.716-15 15s6.716 15 15 15h69.95l10-14-10-16z" fill="#555578"></path><path d="m325.95 361h-69.95v30h69.95c8.284 0 15-6.716 15-15s-6.716-15-15-15z" fill="#3b385c"></path><path d="m0 256c0 141.493 114.507 256 256 256l10-15-10-15c-124.912 0-226-101.088-226-226s101.088-226 226-226l10-15-10-15c-141.493 0-256 114.507-256 256z" fill="#0cf"></path><g fill="#00b0ef"><path d="m336.188 499.441c7.885-2.541 12.217-10.993 9.675-18.878s-10.992-12.216-18.879-9.675c-22.873 7.374-46.756 11.112-70.984 11.112v30c27.357 0 54.336-4.226 80.188-12.559z"></path><path d="m448.424 441.173h-15.651c50.607-48.207 79.227-114.496 79.227-185.173 0-141.493-114.507-256-256-256v30c124.912 0 226 101.088 226 226 0 65.28-27.66 126.322-76.276 169.282v-29.51c0-8.284-6.716-15-15-15s-15 6.716-15 15v60.4c0 8.284 6.716 15 15 15h57.7c8.284 0 15-6.716 15-15s-6.716-14.999-15-14.999z"></path></g></g></svg>