<!-- icon666.com - MILLIONS vector ICONS FREE --><svg version="1.1" id="Layer_1" xmlns="http://www.w3.org/2000/svg" xmlns:xlink="http://www.w3.org/1999/xlink" x="0px" y="0px" viewBox="0 0 511.999 511.999" style="enable-background:new 0 0 511.999 511.999;" xml:space="preserve"><rect x="105.177" y="334.144" transform="matrix(-0.7071 -0.7071 0.7071 -0.7071 -12.4154 729.2117)" style="fill:#EDEDED;" width="30" height="66.066"/><rect x="139.013" y="348.156" transform="matrix(-0.7071 -0.7071 0.7071 -0.7071 1.6024 763.0424)" style="fill:#D8D8DA;" width="39.64" height="66.066"/><g><rect x="142.555" y="296.772" transform="matrix(-0.7071 -0.7071 0.7071 -0.7071 77.8183 691.8427)" style="fill:#797781;" width="79.279" height="66.066"/><rect x="39.777" y="359.901" transform="matrix(-0.7071 -0.7071 0.7071 -0.7071 -170.3031 794.6055)" style="fill:#797781;" width="79.279" height="145.345"/></g><g><polyline style="fill:#58575D;" points="158.832,409.224 56.058,511.999 28.027,483.969 130.803,381.194 "/><polyline style="fill:#58575D;" points="233.579,334.478 186.862,381.195 158.831,353.164 205.548,306.449 "/></g><circle style="fill:#88888F;" cx="327.013" cy="184.986" r="184.986"/><path style="fill:#797781;" d="M457.815,315.792c72.241-72.242,72.241-189.368,0-261.61l-261.61,261.61 C268.447,388.034,385.574,388.033,457.815,315.792z"/><circle style="fill:#D1E5F5;" cx="327.013" cy="184.986" r="132.133"/><path style="fill:#B4D8F1;" d="M420.441,278.418c51.602-51.601,51.601-135.263,0.001-186.864L233.577,278.419 C285.179,330.021,368.841,330.02,420.441,278.418z"/></svg>
